<svg id="Layer_1" viewBox="0 0 64 64" xmlns="http://www.w3.org/2000/svg" data-name="Layer 1"><circle cx="13" cy="8" r="5"/><circle cx="51" cy="8" r="5"/><path d="m32 26-1.85 3.95-4.15.63 3 3.08-.71 4.34 3.71-2.05 3.71 2.05-.71-4.34 3-3.08-4.15-.63z"/><path d="m33.85 6.95-1.85-3.95-1.85 3.95-4.15.63 3 3.08-.71 4.34 3.71-2.05 3.71 2.05-.71-4.34 3-3.08z"/><path d="m34 47-2-5-2 5 2 5z"/><path d="m23 44 2 5 2-5-2-5z"/><path d="m37 44 2 5 2-5-2-5z"/><path d="m53.8 15-2.8 4.91-2.8-4.91a9.4 9.4 0 0 0 -7.2 8l-6-4.42a2 2 0 0 0 -1.13-.58 3.87 3.87 0 0 1 -.39 4.52l7.52 6.48 3-2v31.31a2.63 2.63 0 0 0 2.27 2.69 2.5 2.5 0 0 0 2.73-2.51v-19a2.3 2.3 0 0 1 2-2.49 2.3 2.3 0 0 1 2 2.51v18.8a2.63 2.63 0 0 0 2.27 2.69 2.5 2.5 0 0 0 2.73-2.51v-20.56c2-1.79 3-2.77 3-5.73v-7.69a9.8 9.8 0 0 0 -7.2-9.51z"/><path d="m3 24.51v7.69c0 3 1 3.94 3 5.73v20.56a2.5 2.5 0 0 0 2.73 2.51 2.63 2.63 0 0 0 2.27-2.69v-18.8a2.3 2.3 0 0 1 2-2.51 2.3 2.3 0 0 1 2 2.51v19a2.5 2.5 0 0 0 2.73 2.49 2.63 2.63 0 0 0 2.27-2.69v-31.31l3 2 8.83-7.58a2 2 0 0 0 -2.83-2.83l-6 4.41a9.4 9.4 0 0 0 -7.2-8l-2.8 4.91-2.8-4.91a9.8 9.8 0 0 0 -7.2 9.51z"/></svg>