<svg id="solid" viewBox="0 0 32 32" xmlns="http://www.w3.org/2000/svg"><path d="m24.6346 22.2827c-1.184 2.208-3.1573 3.936-5.5466 4.8v4.9173h-8.448v-4.3093h-2.016c-2.7201 0-4.9174-2.1973-4.9174-4.9174v-4.1493l-3.0826-1.3973 3.0826-4.4693v-1.3867c0-6.1227 4.8321-11.296 10.9441-11.3707-3.7013 2.112-6.208 6.1013-6.208 10.6667 0 6.7627 5.504 12.2667 12.2667 12.2667 1.376 0 2.6987-.224 3.9253-.6507z"/><path d="m22.5439 7.7013v1.44h-3.6693v-1.44c0-.864.704-1.568 1.568-1.568h.5333c.864 0 1.568.704 1.568 1.568z"/><rect height="4.459" rx=".267" width="6.699" x="17.36" y="10.741"/><path d="m20.7093 0c-5.888 0-10.6667 4.7786-10.6667 10.6667s4.7786 10.6667 10.6667 10.6667 10.6667-4.7786 10.6667-10.6667-4.7787-10.6667-10.6667-10.6667zm4.9493 14.9333c0 1.024-.8427 1.8667-1.8667 1.8667h-6.1654c-1.024 0-1.8667-.8426-1.8667-1.8667v-3.9253c0-.9067.6507-1.664 1.5147-1.824v-1.4827c0-1.7493 1.4186-3.168 3.168-3.168h.5333c1.7493 0 3.168 1.4187 3.168 3.168v1.4827c.8641.16 1.5147.9173 1.5147 1.824v3.9253z"/></svg>