<svg id="Capa_1" enable-background="new 0 0 512.236 512.236" height="512" viewBox="0 0 512.236 512.236" width="512" xmlns="http://www.w3.org/2000/svg"><g><path d="m136.11 283.903c15.776 0 28.61-12.834 28.61-28.61v-15h76.397v-48.343c-25.073-6.644-43.61-29.531-43.61-56.666s18.537-50.021 43.61-56.666v-78.618l-210.015 59.72v180.573h76.398v15c0 15.776 12.834 28.61 28.61 28.61z"/><path d="m271.118 106.675h-15c-15.776 0-28.61 12.834-28.61 28.61s12.834 28.61 28.61 28.61h15v76.397h48.343c6.644-25.073 29.531-43.61 56.665-43.61s50.021 18.537 56.666 43.61h48.342v-180.572l-210.016-59.72z"/><path d="m481.134 270.293h-76.397v-15c0-15.776-12.834-28.61-28.61-28.61s-28.61 12.834-28.61 28.61v15h-76.397v48.342c25.073 6.644 43.61 29.531 43.61 56.666s-18.537 50.021-43.61 56.666v80.27c54.457-3.561 105.166-26.457 144.11-65.402 42.5-42.5 65.905-99.006 65.905-159.11v-17.432z"/><path d="m241.118 512.236v-108.325h15c15.776 0 28.61-12.834 28.61-28.61s-12.834-28.61-28.61-28.61h-15v-76.397h-48.343c-6.644 25.073-29.531 43.61-56.665 43.61s-50.021-18.537-56.666-43.61h-48.342v17.432c0 60.104 23.406 116.61 65.905 159.11 38.945 38.942 89.653 61.839 144.111 65.4z"/></g></svg>