<?xml version="1.0" encoding="UTF-8" standalone="no"?>
<!-- Created with Inkscape (http://www.inkscape.org/) -->

<svg
   version="1.1"
   id="svg1020"
   xml:space="preserve"
   width="682.66669"
   height="682.66669"
   viewBox="0 0 682.66669 682.66669"
   xmlns="http://www.w3.org/2000/svg"
   xmlns:svg="http://www.w3.org/2000/svg"><defs
     id="defs1024"><clipPath
       clipPathUnits="userSpaceOnUse"
       id="clipPath1034"><path
         d="M 0,512 H 512 V 0 H 0 Z"
         id="path1032" /></clipPath></defs><g
     id="g1026"
     transform="matrix(1.3333333,0,0,-1.3333333,0,682.66667)"><g
       id="g1028"><g
         id="g1030"
         clip-path="url(#clipPath1034)"><g
           id="g1036"
           transform="translate(378.4302,288.2476)"><path
             d="m 0,0 v -74.798 c 0,-16.624 -13.477,-30.1 -30.101,-30.1 h -183.958 c -16.624,0 -30.101,13.476 -30.101,30.1 V 0 l 57.637,-15.46 64.439,-17.29 z"
             style="fill:none;stroke:#000000;stroke-width:30;stroke-linecap:round;stroke-linejoin:round;stroke-miterlimit:10;stroke-dasharray:none;stroke-opacity:1"
             id="path1038" /></g><g
           id="g1040"
           transform="translate(394.6768,378.6509)"><path
             d="m 0,0 v -86.044 l -16.247,-4.359 -122.084,-32.75 -64.439,17.29 -57.636,15.46 -16.948,4.359 V 0 Z"
             style="fill:none;stroke:#000000;stroke-width:30;stroke-linecap:round;stroke-linejoin:round;stroke-miterlimit:10;stroke-dasharray:none;stroke-opacity:1"
             id="path1042" /></g><g
           id="g1044"
           transform="translate(256.3481,270.7192)"><path
             d="M 0,0 V -30.115"
             style="fill:none;stroke:#000000;stroke-width:30;stroke-linecap:round;stroke-linejoin:round;stroke-miterlimit:10;stroke-dasharray:none;stroke-opacity:1"
             id="path1046" /></g><g
           id="g1048"
           transform="translate(465,497)"><path
             d="m 0,0 v -202.898 c 0,-86.384 -44.559,-167.608 -120.005,-218.768 l -88.989,-60.334 -89.001,60.334 C -373.441,-370.506 -418,-289.282 -418,-202.898 V 0 Z"
             style="fill:none;stroke:#000000;stroke-width:30;stroke-linecap:round;stroke-linejoin:round;stroke-miterlimit:10;stroke-dasharray:none;stroke-opacity:1"
             id="path1050" /></g><g
           id="g1052"
           transform="translate(311.3086,378.6509)"><path
             d="m 0,0 h -110.617 v 24.357 c 0,19.685 15.958,35.643 35.642,35.643 h 39.332 C -15.958,60 0,44.042 0,24.357 Z"
             style="fill:none;stroke:#000000;stroke-width:30;stroke-linecap:round;stroke-linejoin:round;stroke-miterlimit:10;stroke-dasharray:none;stroke-opacity:1"
             id="path1054" /></g></g></g></g></svg>
